HIERARCHY
ROOT hip
{
	OFFSET 0.000000 0.000000 0.000000 
	CHANNELS 6 Xposition Yposition Zposition Xrotation Zrotation Yrotation
	JOINT abdomen
	{
		OFFSET 0.000000 3.402643 0.000000 
		CHANNELS 3 Xrotation Zrotation Yrotation
		JOINT chest
		{
			OFFSET 0.000000 8.438565 -0.680529 
			CHANNELS 3 Xrotation Zrotation Yrotation
			JOINT neck
			{
				OFFSET 0.000000 10.207942 -0.272212 
				CHANNELS 3 Xrotation Zrotation Yrotation
				JOINT head
				{
					OFFSET 0.000000 3.130431 0.000000 
					CHANNELS 3 Xrotation Zrotation Yrotation
					End Site
					{
						OFFSET 0.000000 3.130435 0.000000 
					}
				}
			}
			JOINT lCollar
			{
				OFFSET 3.470700 6.669187 -0.816635 
				CHANNELS 3 Yrotation Zrotation Xrotation
				JOINT lShldr
				{
					OFFSET 3.198488 0.000000 0.000000 
					CHANNELS 3 Zrotation Yrotation Xrotation
					JOINT lForeArm
					{
						OFFSET 10.139888 0.000000 0.000000 
						CHANNELS 3 Yrotation Zrotation Xrotation
						JOINT lHand
						{
							OFFSET 8.370511 0.000000 0.000000 
							CHANNELS 3 Zrotation Yrotation Xrotation
							End Site
							{
								OFFSET 4.083176 0.000000 0.000000 
							}
						}
					}
				}
			}
			JOINT rCollar
			{
				OFFSET -3.470700 6.669187 -0.816635 
				CHANNELS 3 Yrotation Zrotation Xrotation
				JOINT rShldr
				{
					OFFSET -3.198488 0.000000 0.000000 
					CHANNELS 3 Zrotation Yrotation Xrotation
					JOINT rForeArm
					{
						OFFSET -10.139888 0.000000 0.000000 
						CHANNELS 3 Yrotation Zrotation Xrotation
						JOINT rHand
						{
							OFFSET -8.370511 0.000000 0.000000 
							CHANNELS 3 Zrotation Yrotation Xrotation
							End Site
							{
								OFFSET -4.083176 0.000000 0.000000 
							}
						}
					}
				}
			}
		}
	}
	JOINT lThigh
	{
		OFFSET 5.308129 -1.633274 1.361059 
		CHANNELS 3 Xrotation Zrotation Yrotation
		JOINT lShin
		{
			OFFSET -2.041588 -20.007561 0.000000 
			CHANNELS 3 Xrotation Zrotation Yrotation
			JOINT lFoot
			{
				OFFSET 0.000000 -19.190928 -1.224953 
				CHANNELS 3 Xrotation Yrotation Zrotation
				End Site
				{
					OFFSET 0.000000 -2.449906 4.627600 
				}
			}
		}
	}
	JOINT rThigh
	{
		OFFSET -5.308129 -1.633274 1.361059 
		CHANNELS 3 Xrotation Zrotation Yrotation
		JOINT rShin
		{
			OFFSET 2.041588 -20.007561 0.000000 
			CHANNELS 3 Xrotation Zrotation Yrotation
			JOINT rFoot
			{
				OFFSET 0.000000 -19.190928 -1.224953 
				CHANNELS 3 Xrotation Yrotation Zrotation
				End Site
				{
					OFFSET 0.000000 -2.449906 4.627600 
				}
			}
		}
	}
}
MOTION
Frames: 6
Frame Time: 0.016667
-3.878949 42.363804 -43.138557 -8.745309 -4.929653 -8.959629 50.630207 7.935278 4.448751 7.591461 0.839094 -2.978685 -6.756520 4.052997 -0.564140 0.189201 -9.785254 16.842958 -25.609953 -5.703568 -0.301949 -62.506634 -12.190958 -2.804955 -70.460617 5.000000 -12.303225 0.620970 -11.593820 -45.000000 15.469094 -5.227455 0.264440 73.194572 45.369709 36.529324 71.557678 5.000000 3.045630 5.726295 -15.124421 -24.196861 -53.230442 23.065340 4.310766 69.877022 -1.442011 -4.313807 -23.482138 6.880577 -3.642418 -35.394222 2.988281 -3.109575 79.109604 1.875317 13.352941 -37.790089 -18.192472 -10.512487 
-3.998972 42.175785 -42.172539 -9.004320 -5.567949 -8.193257 50.592384 8.316133 5.495107 7.465140 0.634269 -2.695390 -7.055572 3.519028 -0.503120 0.664640 -9.533873 15.203697 -25.056660 -6.298554 -0.332662 -62.936977 -11.553956 -3.492521 -70.772263 5.000000 -11.669064 1.728510 -12.106645 -45.000000 15.743350 -5.403045 0.273549 71.999336 45.267555 35.235687 71.731209 5.000000 3.649851 5.803043 -14.951516 -24.838661 -53.829716 23.355169 3.752141 66.196846 -2.027439 -5.041660 -23.014153 6.620689 -4.285973 -34.217724 3.544339 -3.859176 80.455803 1.496361 12.904936 -39.494293 -18.466438 -10.599478 
-4.089484 41.969822 -41.202332 -9.237651 -6.235466 -7.516411 50.560825 8.727478 6.586785 7.377976 0.400124 -2.421892 -7.364854 2.994710 -0.443540 1.097027 -9.228126 13.665530 -24.396463 -6.922813 -0.366029 -63.305553 -10.952414 -4.203559 -71.200386 5.000000 -10.948632 2.841936 -12.210228 -45.000000 16.017399 -5.529872 0.280131 70.913895 45.062580 34.034126 72.075066 5.000000 4.170625 5.643651 -15.033544 -25.687611 -54.251160 23.619801 2.774560 62.960186 -2.837494 -6.031909 -22.493977 6.489880 -4.607996 -33.040970 4.071340 -4.639737 81.803169 1.154410 12.417915 -41.202442 -18.582186 -10.512841 
-4.157010 41.745262 -40.225082 -9.513718 -6.913716 -6.847138 50.547459 9.156208 7.667923 7.278958 0.185443 -2.138662 -7.664323 2.471850 -0.373874 1.500658 -8.928959 12.170696 -23.746473 -7.556820 -0.398781 -63.659767 -10.332022 -4.956285 -71.601692 5.000000 -10.240954 3.891534 -12.262143 -45.000000 16.301128 -5.637196 0.285701 69.874954 44.791534 32.877167 72.419922 5.000000 4.643722 5.496821 -15.137071 -26.409374 -54.651508 23.844549 1.728696 59.969028 -3.627908 -6.933079 -22.028048 6.319268 -4.916517 -31.895222 4.588710 -5.401888 83.236176 0.802962 11.965491 -42.862186 -18.688732 -10.388741 
-4.209592 41.507214 -39.237679 -9.914422 -7.649872 -6.267241 50.695686 9.626343 8.687437 7.149023 -0.019522 -1.796878 -7.857072 1.977955 -0.309075 1.872823 -8.683217 10.818505 -23.126755 -8.268840 -0.436902 -63.866333 -9.552778 -5.971575 -72.015793 5.000000 -9.536962 4.593873 -12.049578 -45.000000 16.662703 -5.686018 0.288244 69.062691 44.274563 31.877441 72.796738 5.000000 4.976113 5.429806 -15.237669 -26.476585 -54.910042 24.051889 0.205923 58.196285 -4.242932 -7.563544 -21.925337 6.064468 -4.976727 -30.767351 5.116673 -6.148442 84.904510 0.451205 11.469214 -44.621384 -18.755295 -10.124132 
-4.242075 41.250870 -38.245773 -10.336462 -8.406153 -5.696808 50.871620 10.107023 9.706538 7.017652 -0.224531 -1.435574 -8.040359 1.504829 -0.237526 2.227857 -8.429476 9.496831 -22.517368 -8.990608 -0.474171 -64.072212 -8.760983 -7.026491 -72.401192 5.000000 -8.856639 5.253673 -11.839946 -45.000000 17.033991 -5.725089 0.290283 68.310448 43.700275 30.913942 73.174530 5.000000 5.265944 5.376369 -15.327657 -26.431030 -55.130493 24.245567 -1.416809 56.664635 -4.836819 -8.108602 -21.903606 5.776950 -5.009546 -29.669516 5.623745 -6.895144 86.658806 0.069124 10.975728 -46.325714 -18.834097 -9.809340 
